<?xml version="1.0" encoding="UTF-8"?>
<!-- Generator: Adobe Illustrator 19.1.0, SVG Export Plug-In . SVG Version: 6.00 Build 0)  -->
<svg version="1.1" id="Layer_1" xmlns="http://www.w3.org/2000/svg" xmlns:xlink="http://www.w3.org/1999/xlink" x="0px" y="0px" viewBox="0 0 941.6 467.1" style="enable-background:new 0 0 941.6 467.1;" xml:space="preserve">
<style type="text/css">
	.st0{clip-path:url(#SVGID_2_);fill:#0072CE;}
	.st1{clip-path:url(#SVGID_2_);}
	.st2{clip-path:url(#SVGID_4_);fill:#231F20;}
	.st3{fill:#FFFFFF;}
</style>
<g>
	<g>
		<defs>
			<rect id="SVGID_1_" x="9.4" y="4.7" width="922.7" height="457.7"/>
		</defs>
		<clipPath id="SVGID_2_">
			<use xlink:href="#SVGID_1_" style="overflow:visible;"/>
		</clipPath>
		<polygon class="st0" points="932.1,4.7 9.4,166.6 62.4,462.4 932.1,308.5   "/>
		<g class="st1">
			<defs>
				<rect id="SVGID_3_" x="-23.3" y="-32.5" width="988.1" height="532"/>
			</defs>
			<clipPath id="SVGID_4_">
				<use xlink:href="#SVGID_3_" style="overflow:visible;"/>
			</clipPath>
			<polygon class="st2" points="902.7,332.5 907.5,332.5 907.5,345.3 909.7,345.3 909.7,332.5 914.4,332.5 914.4,330.6 902.7,330.6         "/>
			<polygon class="st2" points="919.8,345.3 919.8,332 919.9,332 923.9,345.3 925.7,345.3 929.8,332 929.9,332 929.9,345.3      932.1,345.3 932.1,330.6 928.2,330.6 925,341.5 924.9,341.5 921.4,330.6 917.6,330.6 917.6,345.3    "/>
		</g>
		<g class="st1">
			<polygon class="st3" points="66.5,337.2 100.9,175.4 195,175.4 184.7,209.5 135.3,209.5 129.5,236.7 169.9,236.7 162.9,269.7      122.5,269.7 115.5,302.6 171,302.6 163.6,337.2    "/>
			<path class="st3" d="M204.3,173.5l42-7c0.5,5.8-0.9,18.1-3.5,30l-19,88.9c-4.4,21.1-4.9,26.7,4.2,26.7c1.4,0,2.8-0.2,4.4-0.7     l1.2,25.1c-5.8,2.1-15.8,3.7-26.9,3.7c-34.1,0-31.1-17.6-26-41.6l17.4-81.8C204,189.1,204.5,180.3,204.3,173.5"/>
			<path class="st3" d="M347.8,254.3l-9.1,43.2c-0.9,4-0.7,12.3,4.6,18.1l-32.7,26.2c-4.9-2.6-8.4-9.8-9.1-14.2     c-5.3,5.6-17.2,13.2-31.1,13.2c-24.4,0-34.6-15.3-34.6-40.9c0-25.5,10.2-52,25.8-67.6c13.7-13.7,28.3-18.1,49.5-18.1     c16.5,0,36.9,2.8,45.8,7.2C353.4,230,349.9,244.4,347.8,254.3 M304.9,244.4c-3,0-8.8-0.2-14.6,6.5c-8.6,10-13.7,33.4-13.7,48.3     c0,8.1,2.3,11.6,7.9,11.6c4.9,0,13.2-8.4,14.2-12.3l11.1-52.5C308.4,244.8,306.3,244.4,304.9,244.4"/>
			<path class="st3" d="M438.9,214.4c30,0,33,17,29.3,34.4l-18.8,88.5h-40.4l16.3-76.6c2.1-9.3,0.9-13.5-5.8-13.5     c-6.5,0-11.6,3.3-16.7,11.1l-17,79h-40.4l16-75.5c3.7-18.1,5.1-28.8,3.3-40.6l35.8-6.7c0.9,3.9,1.9,8.1,2.1,13     C411.7,219.3,425.6,214.4,438.9,214.4"/>
			<path class="st3" d="M508.3,340.3c-33.4,0-49.7-21.4-41.1-61.8c8.6-40.6,33.2-64.1,68.5-64.1c17.2,0,26.5,4.4,36.2,14.2     l-23.7,24.4c-3.5-4.9-9.5-8.8-15.1-8.8c-9.3,0-16.3,7.4-21.4,31.8s-4.6,34.4,7,34.4c9.1,0,17.4-4.4,24.2-10.7l12.1,23.7     C539.4,336.1,523,340.3,508.3,340.3"/>
			<path class="st3" d="M673.1,256.9c0,31.4-17.4,83.4-73.4,83.4c-28.3,0-44.4-15.6-44.4-43.2c0-30.9,16.7-82.7,73.4-82.7     C653.8,214.4,673.1,226.7,673.1,256.9 M597.6,301c0,7.4,2.6,10.9,9.1,10.9c16.7,0,23.7-50.4,23.7-58.5c0-8.1-3-10.9-9.1-10.9     C604.6,242.5,597.6,292.7,597.6,301"/>
		</g>
	</g>
</g>
</svg>